<svg width="600" height="206" viewBox="0 0 600 206" fill="none" xmlns="http://www.w3.org/2000/svg">
<path d="M28.35 175.2C26.75 175.2 25.1 174.2 23.4 172.2C21.7 170.3 20.65 168.5 20.25 166.8C20.15 166.5 20.1 166.2 20.1 165.9C20.1 165.6 20.1 165.35 20.1 165.15C20.1 163.75 20.4 162.5 21 161.4C21.7 160.3 22.5 159.65 23.4 159.45C23.7 157.85 24.55 156.45 25.95 155.25C26.45 154.85 27.1 154.5 27.9 154.2C24.8 153.8 21.95 152.55 19.35 150.45C16.85 148.45 15.6 145.75 15.6 142.35C15.6 141.25 15.75 140.2 16.05 139.2C16.15 138.7 16.2 138.15 16.2 137.55C16.3 136.95 16.35 136.4 16.35 135.9C16.35 134.1 16 132.65 15.3 131.55C14.7 131.75 14.2 131.85 13.8 131.85C12.7 131.85 11.65 131.45 10.65 130.65C9.75 129.85 9.1 128.9 8.7 127.8C8.3 126.7 8.1 125.65 8.1 124.65C8.1 124.05 8.15 123.5 8.25 123C8.35 122.5 8.4 122.05 8.4 121.65C8.4 120.55 8.15 119.4 7.65 118.2C7.15 117 6.2 116.5 4.8 116.7C4.9 116.5 5.05 116.2 5.25 115.8C5.55 115.4 6.3 115.2 7.5 115.2C9.3 115.2 11.25 116.05 13.35 117.75C15.45 119.35 16.85 121 17.55 122.7C17.85 123.3 18.05 123.9 18.15 124.5C18.25 125.1 18.3 125.65 18.3 126.15C18.3 128.35 17.65 129.95 16.35 130.95C17.25 132.45 17.7 133.95 17.7 135.45C19 133.75 20.65 132.4 22.65 131.4C24.75 130.4 26.75 129.9 28.65 129.9C29.75 128.6 31.1 127.95 32.7 127.95C34.5 127.95 35.95 128.8 37.05 130.5C37.85 130.7 38.5 130.8 39 130.8C39.7 130.8 40.3 130.7 40.8 130.5C41.4 130.2 41.75 129.85 41.85 129.45C42.05 128.75 42.35 128.4 42.75 128.4C43.25 128.4 43.55 128.6 43.65 129C43.85 129.7 43.75 130.6 43.35 131.7C43.05 132.7 42 133.3 40.2 133.5C39.7 133.5 38.95 133.3 37.95 132.9C38.05 133.3 38.1 133.7 38.1 134.1C38.1 134.4 38.1 134.8 38.1 135.3C38.1 135.6 38.05 135.95 37.95 136.35C37.95 136.65 37.95 137 37.95 137.4V137.85C37.95 138.75 38.2 139.5 38.7 140.1C39.3 140.8 39.9 140.95 40.5 140.55C40.9 140.35 41.2 140.25 41.4 140.25C41.7 140.25 41.75 140.5 41.55 141C40.65 142.3 39.5 142.95 38.1 142.95C36.5 142.95 35.25 142.25 34.35 140.85C33.45 139.45 32.95 138.25 32.85 137.25C32.65 135.35 32.1 134 31.2 133.2C30.3 132.3 29.45 131.8 28.65 131.7C28.55 131.7 28.45 131.7 28.35 131.7C28.35 131.6 28.3 131.55 28.2 131.55C26.3 131.95 24.4 132.9 22.5 134.4C20.6 135.9 19.4 137.65 18.9 139.65C18.8 140.05 18.7 140.45 18.6 140.85C18.6 141.35 18.6 141.85 18.6 142.35C18.6 145.45 19.75 147.85 22.05 149.55C24.45 151.25 27.2 152.1 30.3 152.1C34.7 152.1 39.4 150.5 44.4 147.3C49.4 144.2 54.45 140.1 59.55 135C64.75 129.8 69.85 124.05 74.85 117.75C79.85 111.45 84.6 105.1 89.1 98.7C93.6 92.3 97.65 86.4 101.25 81C102.95 78.4 104.95 75.65 107.25 72.75C109.55 69.75 112 66.75 114.6 63.75C109.3 61.95 103.9 60.3 98.4 58.8C92.9 57.2 87.4 56 81.9 55.2C82 59.1 81.4 63.05 80.1 67.05C78.9 70.95 77.15 74.75 74.85 78.45C75.95 77.85 77 77.35 78 76.95C79.1 76.45 80.3 76.2 81.6 76.2C81.9 74.9 82.6 74 83.7 73.5C84.8 73 85.95 72.75 87.15 72.75C88.55 72.75 89.75 73 90.75 73.5C91.65 73.9 92.95 74.7 94.65 75.9C96.35 77.1 97.3 78.6 97.5 80.4C97.2 80.2 96.6 79.95 95.7 79.65C94.8 79.25 93.75 79.05 92.55 79.05C90.95 79.05 89.3 79.6 87.6 80.7C87.1 81.1 86.45 81.3 85.65 81.3C84.65 81.3 83.75 80.9 82.95 80.1C82.25 79.2 81.8 78.35 81.6 77.55C79 77.75 76.4 78.9 73.8 81C73.4 81.2 73.15 81.3 73.05 81.3C69.05 87.4 64.2 92.85 58.5 97.65C52.8 102.45 47.25 105.95 41.85 108.15C38.75 109.45 35.8 110.4 33 111C30.2 111.5 27.6 111.75 25.2 111.75C18.5 111.75 13.35 109.85 9.75 106.05C6.15 102.25 4.35 97.6 4.35 92.1C4.35 87.8 5.5 83.3 7.8 78.6C10.2 73.8 13.9 69.25 18.9 64.95C23.4 61.15 28.45 58.05 34.05 55.65C39.65 53.15 45.35 51.35 51.15 50.25C57.05 49.05 62.55 48.65 67.65 49.05C71.55 49.25 75.35 49.7 79.05 50.4C78.45 47.1 77.15 43.85 75.15 40.65C72.25 36.35 68.05 33.15 62.55 31.05C61.15 30.95 60 31.3 59.1 32.1C58.2 32.9 57.6 33.65 57.3 34.35C56.8 35.35 56.55 36.3 56.55 37.2C56.55 38.4 56.95 39.15 57.75 39.45C58.25 39.55 58.5 39.75 58.5 40.05C58.5 40.45 58 40.65 57 40.65C56.2 40.65 55.3 40.4 54.3 39.9C53.3 39.3 52.8 38.35 52.8 37.05C52.8 35.35 53.6 33.85 55.2 32.55C56.9 31.25 58.75 30.55 60.75 30.45C60.85 30.45 60.9 30.45 60.9 30.45C56 28.85 50.1 28.25 43.2 28.65C42.4 28.75 41.6 28.85 40.8 28.95C40.1 29.05 39.4 29.2 38.7 29.4L37.65 29.55C37.45 29.55 37.25 29.6 37.05 29.7C36.85 29.8 36.65 29.9 36.45 30C35.45 30.3 34.4 30.9 33.3 31.8C32.4 32.7 31.95 33.9 31.95 35.4C31.95 37.1 32.65 38.1 34.05 38.4C34.55 38.5 34.8 38.75 34.8 39.15C34.8 39.45 34.55 39.65 34.05 39.75C33.85 39.85 33.55 39.9 33.15 39.9C32.25 39.9 31.5 39.6 30.9 39C30.5 38.6 30.2 38.2 30 37.8C29.8 37.3 29.65 36.85 29.55 36.45L29.1 37.2C28.6 38 27.7 39.1 26.4 40.5C25.1 41.8 23.6 42.95 21.9 43.95C20.2 44.95 18.5 45.45 16.8 45.45C14.6 45.45 13 44.5 12 42.6C11.9 42.5 11.85 42.35 11.85 42.15C11.85 41.95 12 41.85 12.3 41.85C12.6 41.85 12.9 41.9 13.2 42C13.5 42 13.85 42 14.25 42C15.35 42 16.4 41.5 17.4 40.5C18.5 39.5 19.25 38.45 19.65 37.35C20.45 35.05 21.5 32.85 22.8 30.75C24.1 28.55 25.55 27.05 27.15 26.25C28.55 25.55 29.95 25.2 31.35 25.2C33.65 25.2 35.55 25.95 37.05 27.45C37.95 27.15 38.9 26.95 39.9 26.85C40.9 26.65 41.9 26.5 42.9 26.4C43.7 26.3 44.45 26.25 45.15 26.25C45.85 26.25 46.55 26.25 47.25 26.25C54.05 26.25 59.9 27.35 64.8 29.55C69.7 31.65 73.5 34.6 76.2 38.4C77.7 40.3 78.85 42.3 79.65 44.4C80.55 46.5 81.2 48.65 81.6 50.85C87.5 52.05 93.35 53.6 99.15 55.5C105.05 57.4 110.9 59.4 116.7 61.5C119 59 121.35 56.65 123.75 54.45C126.25 52.15 128.75 50.05 131.25 48.15C134.05 46.05 136.85 44.6 139.65 43.8C142.45 43 145 42.6 147.3 42.6C149.9 42.6 152 42.95 153.6 43.65C155.3 44.35 156.3 45.15 156.6 46.05L155.85 46.5C155.15 45.7 154.15 45.05 152.85 44.55C151.65 44.05 150.2 43.8 148.5 43.8C146.5 43.8 144.15 44.3 141.45 45.3C138.75 46.2 135.8 47.85 132.6 50.25C130.9 51.55 129.05 53.3 127.05 55.5C125.05 57.7 122.95 60.25 120.75 63.15C125.35 64.85 129.8 66.55 134.1 68.25C138.5 69.85 142.75 71.35 146.85 72.75C150.75 74.05 154.2 75 157.2 75.6C160.3 76.1 162.95 76.35 165.15 76.35C169.25 76.35 172.4 75.75 174.6 74.55C176.8 73.25 178.35 71.85 179.25 70.35C180.25 68.75 180.9 67.5 181.2 66.6L183.3 67.2C183 68.5 182.25 70.05 181.05 71.85C179.95 73.55 178.15 75.1 175.65 76.5C173.15 77.8 169.7 78.45 165.3 78.45C162.8 78.45 160 78.2 156.9 77.7C153.8 77.1 150.25 76.15 146.25 74.85C141.95 73.45 137.55 71.9 133.05 70.2C128.55 68.5 123.95 66.85 119.25 65.25C115.95 69.85 112.6 74.85 109.2 80.25C105.8 85.55 102.6 90.7 99.6 95.7C96.6 100.6 93.95 104.85 91.65 108.45C86.15 117.25 80.15 125.15 73.65 132.15C67.25 139.15 60.5 144.6 53.4 148.5C46.3 152.5 38.9 154.45 31.2 154.35C30.5 154.45 29.75 154.65 28.95 154.95C28.25 155.25 27.6 155.65 27 156.15C25.6 157.25 24.75 158.35 24.45 159.45C25.55 159.45 26.55 159.9 27.45 160.8C28.45 161.7 28.95 162.7 28.95 163.8V164.7C28.95 165.7 28.85 166.5 28.65 167.1C28.55 167.8 28.4 168.45 28.2 169.05C28 169.65 27.9 170.25 27.9 170.85C27.9 171.65 28.05 172.4 28.35 173.1C28.75 173.8 29.35 174.2 30.15 174.3C30.05 174.4 29.9 174.55 29.7 174.75C29.5 175.05 29.05 175.2 28.35 175.2ZM27 109.2C28.9 109.2 30.95 108.95 33.15 108.45C35.35 107.95 37.7 107.2 40.2 106.2C40.8 106 41.45 105.8 42.15 105.6C42.85 105.4 43.45 105.05 43.95 104.55L44.1 104.4C45.8 103.3 47.55 101.7 49.35 99.6C51.15 97.4 52.25 95.35 52.65 93.45C50.95 93.55 49.4 93 48 91.8C46.7 90.5 45.9 89.05 45.6 87.45C45.5 86.85 45.4 86.3 45.3 85.8C45.3 85.3 45.3 84.8 45.3 84.3C45.3 83.4 45.35 82.6 45.45 81.9C45.65 81.2 45.85 80.5 46.05 79.8C46.15 79.5 46.2 78.9 46.2 78C46.2 76.7 45.9 75.45 45.3 74.25C44.7 72.95 43.7 72.3 42.3 72.3C42.4 72.1 42.65 71.8 43.05 71.4C43.45 70.9 44.2 70.65 45.3 70.65C46.9 70.65 48.55 71.25 50.25 72.45C52.05 73.65 53.65 75.15 55.05 76.95C56.45 78.65 57.4 80.35 57.9 82.05C58.2 83.25 58.35 84.4 58.35 85.5C58.35 87.3 57.95 88.9 57.15 90.3C56.35 91.7 55.35 92.65 54.15 93.15H54C54.1 94.15 53.75 95.4 52.95 96.9C52.15 98.3 51.25 99.6 50.25 100.8C55.25 97.4 60 93.25 64.5 88.35C69 83.35 72.65 78 75.45 72.3C78.35 66.5 79.7 60.7 79.5 54.9C77.4 54.7 75.3 54.55 73.2 54.45C71.2 54.25 69.15 54.15 67.05 54.15C62.35 54.25 57.3 54.95 51.9 56.25C46.6 57.55 41.4 59.5 36.3 62.1C31.3 64.6 26.9 67.7 23.1 71.4C19.5 74.9 16.8 78.7 15 82.8C13.2 86.8 12.3 90.6 12.3 94.2C12.3 98.4 13.5 101.95 15.9 104.85C18.4 107.75 22.1 109.2 27 109.2ZM132.405 83.4C131.005 83.4 129.905 82.95 129.105 82.05C128.405 81.15 128.055 80.1 128.055 78.9C128.055 76.9 128.755 75.3 130.155 74.1C131.555 72.9 133.055 72.3 134.655 72.3C136.055 72.3 137.155 72.75 137.955 73.65C138.755 74.45 139.155 75.5 139.155 76.8C139.155 78.7 138.455 80.3 137.055 81.6C135.655 82.8 134.105 83.4 132.405 83.4ZM107.505 139.8C104.805 139.8 102.505 139 100.605 137.4C98.8055 135.7 97.9055 133.3 97.9055 130.2C97.9055 128.6 98.2055 126.75 98.8055 124.65C99.5055 122.45 100.305 120.45 101.205 118.65C102.205 116.75 103.055 115.2 103.755 114C104.555 112.8 104.955 112.2 104.955 112.2L119.655 90.45C120.255 89.95 121.005 89.65 121.905 89.55C122.805 89.35 123.755 89.25 124.755 89.25C126.155 89.25 127.355 89.4 128.355 89.7C129.355 89.9 129.755 90.25 129.555 90.75L114.705 112.8C114.405 113.2 113.405 114.6 111.705 117C110.105 119.3 108.555 121.85 107.055 124.65C105.155 128.15 104.205 131.15 104.205 133.65C104.205 136.35 105.455 137.7 107.955 137.7C108.755 137.7 109.705 137.55 110.805 137.25C112.005 136.85 113.355 136.25 114.855 135.45C121.155 131.95 127.605 124.85 134.205 114.15C134.505 113.65 134.755 113.4 134.955 113.4C135.255 113.3 135.455 113.25 135.555 113.25C136.055 113.25 136.355 113.45 136.455 113.85C136.655 114.15 136.605 114.55 136.305 115.05C132.705 120.55 129.155 125.3 125.655 129.3C122.255 133.3 118.655 136.2 114.855 138C112.355 139.2 109.905 139.8 107.505 139.8ZM194.828 140.25C191.828 140.25 189.678 139.5 188.378 138C187.078 136.4 186.428 134.55 186.428 132.45C186.428 130.55 186.778 128.75 187.478 127.05C189.278 122.35 191.428 118.25 193.928 114.75C196.528 111.25 199.228 107.3 202.028 102.9C203.628 100.3 204.428 98.35 204.428 97.05C204.428 95.85 203.828 95.25 202.628 95.25C201.028 95.25 198.728 96.3 195.728 98.4C192.728 100.4 189.628 103.3 186.428 107.1C184.228 109.7 181.828 112.75 179.228 116.25C176.728 119.75 174.328 123.15 172.028 126.45C169.728 129.75 167.878 132.5 166.478 134.7C165.078 136.9 164.378 138 164.378 138C163.778 138.2 162.828 138.35 161.528 138.45C160.228 138.65 158.928 138.75 157.628 138.75C156.828 138.75 156.078 138.7 155.378 138.6C154.778 138.6 154.228 138.55 153.728 138.45C154.728 136.95 156.128 134.9 157.928 132.3C159.828 129.7 161.828 126.9 163.928 123.9C166.128 120.8 168.228 117.8 170.228 114.9C172.228 111.9 173.978 109.3 175.478 107.1C176.978 104.9 177.978 103.4 178.478 102.6C180.278 99.7 181.178 97.3 181.178 95.4C181.178 94.1 180.628 93.45 179.528 93.45C178.628 93.45 177.228 94.1 175.328 95.4C173.428 96.6 170.878 98.7 167.678 101.7C165.578 103.7 163.528 105.95 161.528 108.45C159.528 110.95 157.628 113.45 155.828 115.95C153.028 119.65 150.478 123.2 148.178 126.6C145.878 129.9 144.028 132.6 142.628 134.7C141.328 136.8 140.628 137.9 140.528 138C139.728 138.3 138.778 138.5 137.678 138.6C136.678 138.7 135.678 138.75 134.678 138.75C133.578 138.75 132.528 138.7 131.528 138.6C130.628 138.5 130.028 138.4 129.728 138.3C130.928 136.7 132.528 134.55 134.528 131.85C136.528 129.15 138.628 126.2 140.828 123C143.128 119.7 145.328 116.45 147.428 113.25C149.628 110.05 151.528 107.15 153.128 104.55C154.728 101.95 155.878 99.95 156.578 98.55C157.778 95.85 158.378 94 158.378 93C158.378 91.9 157.928 91.35 157.028 91.35C156.528 91.35 155.678 91.7 154.478 92.4C153.178 93.3 151.628 94.75 149.828 96.75C148.128 98.65 146.378 100.8 144.578 103.2C142.778 105.6 141.128 107.9 139.628 110.1C138.128 112.3 136.978 114.05 136.178 115.35C135.978 115.45 135.728 115.5 135.428 115.5C135.028 115.5 134.728 115.35 134.528 115.05C134.328 114.75 134.278 114.4 134.378 114C135.078 112.9 136.228 111.25 137.828 109.05C139.428 106.75 141.178 104.3 143.078 101.7C145.078 99.1 146.978 96.75 148.778 94.65C150.578 92.45 152.028 90.95 153.128 90.15C155.228 88.65 157.228 87.9 159.128 87.9C160.828 87.9 162.178 88.5 163.178 89.7C164.178 90.8 164.678 92.3 164.678 94.2C164.678 96.8 164.028 99.75 162.728 103.05C163.228 102.35 164.278 101.25 165.878 99.75C167.478 98.15 169.078 96.6 170.678 95.1C172.378 93.6 173.478 92.7 173.978 92.4C175.678 91.5 177.278 90.85 178.778 90.45C180.378 90.05 181.828 89.85 183.128 89.85C185.628 89.85 187.378 90.45 188.378 91.65C188.978 92.25 189.278 93.2 189.278 94.5C189.278 95.8 188.978 97.25 188.378 98.85C187.778 100.45 187.078 101.95 186.278 103.35C188.078 101.45 189.978 99.65 191.978 97.95C193.978 96.25 196.078 94.75 198.278 93.45C200.278 92.25 202.078 91.4 203.678 90.9C205.378 90.3 206.878 90 208.178 90C212.078 90 214.028 92 214.028 96C214.028 97.5 213.628 99.25 212.828 101.25C212.128 103.25 210.928 105.35 209.228 107.55C207.328 110.05 204.878 113.25 201.878 117.15C198.978 121.05 196.678 124.8 194.978 128.4C193.778 130.9 193.178 132.9 193.178 134.4C193.178 136.4 194.128 137.4 196.028 137.4C197.528 137.4 199.528 136.65 202.028 135.15C205.028 133.35 208.228 130.65 211.628 127.05C215.128 123.45 218.428 119 221.528 113.7C221.828 113.4 222.228 113.25 222.728 113.25C223.628 113.25 223.828 113.85 223.328 115.05C220.528 119.65 217.528 123.85 214.328 127.65C211.228 131.45 208.028 134.5 204.728 136.8C201.428 139.1 198.128 140.25 194.828 140.25ZM231.589 139.35C228.989 139.35 226.539 138.75 224.239 137.55C221.939 136.25 220.239 134.2 219.139 131.4C218.439 129.6 218.089 127.55 218.089 125.25C218.089 122.45 218.639 119.7 219.739 117C221.139 113.7 223.189 110.45 225.889 107.25C228.589 104.05 231.589 101.15 234.889 98.55C238.189 95.95 241.489 93.9 244.789 92.4C248.089 90.8 251.039 90 253.639 90C255.839 90 257.589 90.6 258.889 91.8C259.789 92.7 260.239 94 260.239 95.7C260.239 97.9 259.389 100.45 257.689 103.35C256.089 106.15 253.789 108.6 250.789 110.7C248.889 112 246.639 113.1 244.039 114C241.539 114.8 238.889 115.2 236.089 115.2C235.189 115.2 234.239 115.15 233.239 115.05C232.339 114.95 231.439 114.8 230.539 114.6C229.839 115.4 228.989 116.7 227.989 118.5C227.089 120.2 226.289 122.1 225.589 124.2C224.989 126.3 224.689 128.3 224.689 130.2C224.789 132.8 225.489 134.65 226.789 135.75C228.189 136.75 229.839 137.25 231.739 137.25C235.539 137.25 239.189 136.05 242.689 133.65C246.289 131.15 249.539 128.1 252.439 124.5C255.339 120.9 257.789 117.45 259.789 114.15C260.089 113.75 260.339 113.55 260.539 113.55C260.739 113.45 260.889 113.4 260.989 113.4C261.289 113.4 261.539 113.55 261.739 113.85C262.039 114.15 262.089 114.55 261.889 115.05C260.589 117.15 258.889 119.65 256.789 122.55C254.789 125.45 252.389 128.25 249.589 130.95C246.889 133.55 243.839 135.7 240.439 137.4C239.139 138.1 237.689 138.6 236.089 138.9C234.589 139.2 233.089 139.35 231.589 139.35ZM234.739 113.1C239.439 113.1 243.689 111.9 247.489 109.5C251.389 107 254.189 104 255.889 100.5C256.389 99.7 256.689 98.95 256.789 98.25C256.989 97.55 257.089 97 257.089 96.6C257.089 94.9 256.139 94.05 254.239 94.05C253.039 94.05 251.689 94.35 250.189 94.95C248.789 95.55 247.539 96.25 246.439 97.05C244.539 98.45 242.539 100.2 240.439 102.3C238.439 104.3 236.639 106.3 235.039 108.3C233.439 110.2 232.239 111.7 231.439 112.8C231.939 112.9 232.489 113 233.089 113.1C233.689 113.1 234.239 113.1 234.739 113.1ZM267.865 139.35C267.465 139.35 267.015 139.3 266.515 139.2C266.015 139.2 265.515 139.15 265.015 139.05C262.115 138.35 260.015 137.05 258.715 135.15C257.515 133.15 256.915 130.75 256.915 127.95C256.915 125.75 257.215 123.4 257.815 120.9C258.515 118.3 259.365 115.6 260.365 112.8C262.065 108.4 264.165 103.55 266.665 98.25C269.265 92.85 272.165 87.35 275.365 81.75C278.665 76.05 282.115 70.55 285.715 65.25C289.415 59.95 293.215 55.15 297.115 50.85C299.415 48.25 301.715 45.9 304.015 43.8C306.415 41.7 308.765 40 311.065 38.7C314.965 36.3 318.565 35.1 321.865 35.1C323.865 35.1 325.415 35.6 326.515 36.6C327.715 37.5 328.315 38.95 328.315 40.95C328.315 42.25 328.015 43.75 327.415 45.45C326.915 47.05 326.015 48.9 324.715 51C322.215 55.2 318.965 59.6 314.965 64.2C311.065 68.8 306.815 73.3 302.215 77.7C297.615 82 292.965 85.95 288.265 89.55C283.665 93.15 279.315 96.1 275.215 98.4C273.215 102 271.315 105.85 269.515 109.95C267.715 113.95 266.265 117.8 265.165 121.5C264.065 125.1 263.515 128.2 263.515 130.8C263.515 132.8 263.915 134.4 264.715 135.6C265.515 136.8 266.765 137.4 268.465 137.4C270.665 137.4 273.215 136.4 276.115 134.4C279.015 132.4 282.015 129.7 285.115 126.3C288.315 122.8 291.315 118.75 294.115 114.15C294.615 113.55 295.115 113.25 295.615 113.25C295.915 113.25 296.115 113.45 296.215 113.85C296.415 114.25 296.415 114.65 296.215 115.05C291.315 122.55 286.515 128.5 281.815 132.9C277.215 137.2 272.565 139.35 267.865 139.35ZM276.265 95.55C279.465 93.75 283.165 91 287.365 87.3C291.665 83.6 296.015 79.5 300.415 75C304.815 70.4 308.865 65.85 312.565 61.35C316.365 56.85 319.315 52.9 321.415 49.5C322.515 47.7 323.315 46.15 323.815 44.85C324.315 43.55 324.565 42.45 324.565 41.55C324.565 39.75 323.765 38.85 322.165 38.85C320.065 38.85 317.265 40.3 313.765 43.2C311.265 45.3 308.915 47.65 306.715 50.25C304.515 52.75 302.965 54.6 302.065 55.8C297.465 61.9 293.015 68.55 288.715 75.75C284.415 82.85 280.265 89.45 276.265 95.55ZM322.542 83.4C321.142 83.4 320.042 82.95 319.242 82.05C318.542 81.15 318.192 80.1 318.192 78.9C318.192 76.9 318.892 75.3 320.292 74.1C321.692 72.9 323.192 72.3 324.792 72.3C326.192 72.3 327.292 72.75 328.092 73.65C328.892 74.45 329.292 75.5 329.292 76.8C329.292 78.7 328.592 80.3 327.192 81.6C325.792 82.8 324.242 83.4 322.542 83.4ZM297.642 139.8C294.942 139.8 292.642 139 290.742 137.4C288.942 135.7 288.042 133.3 288.042 130.2C288.042 128.6 288.342 126.75 288.942 124.65C289.642 122.45 290.442 120.45 291.342 118.65C292.342 116.75 293.192 115.2 293.892 114C294.692 112.8 295.092 112.2 295.092 112.2L309.792 90.45C310.392 89.95 311.142 89.65 312.042 89.55C312.942 89.35 313.892 89.25 314.892 89.25C316.292 89.25 317.492 89.4 318.492 89.7C319.492 89.9 319.892 90.25 319.692 90.75L304.842 112.8C304.542 113.2 303.542 114.6 301.842 117C300.242 119.3 298.692 121.85 297.192 124.65C295.292 128.15 294.342 131.15 294.342 133.65C294.342 136.35 295.592 137.7 298.092 137.7C298.892 137.7 299.842 137.55 300.942 137.25C302.142 136.85 303.492 136.25 304.992 135.45C311.292 131.95 317.742 124.85 324.342 114.15C324.642 113.65 324.892 113.4 325.092 113.4C325.392 113.3 325.592 113.25 325.692 113.25C326.192 113.25 326.492 113.45 326.592 113.85C326.792 114.15 326.742 114.55 326.442 115.05C322.842 120.55 319.292 125.3 315.792 129.3C312.392 133.3 308.792 136.2 304.992 138C302.492 139.2 300.042 139.8 297.642 139.8ZM360.514 140.1C358.114 140.1 356.064 139.35 354.364 137.85C352.664 136.25 351.814 134 351.814 131.1C351.814 127.6 352.814 124 354.814 120.3C356.814 116.5 359.164 112.75 361.864 109.05C364.564 105.35 366.914 101.95 368.914 98.85C370.014 96.95 370.564 95.4 370.564 94.2C370.564 92.8 369.914 92.1 368.614 92.1C367.614 92.1 366.114 92.75 364.114 94.05C362.114 95.25 359.564 97.35 356.464 100.35C353.464 103.35 350.564 106.7 347.764 110.4C345.064 114 342.564 117.6 340.264 121.2C338.064 124.8 336.114 128.1 334.414 131.1C332.814 134.1 331.614 136.4 330.814 138C330.114 138.3 329.214 138.5 328.114 138.6C327.114 138.7 326.064 138.75 324.964 138.75C322.464 138.75 320.814 138.6 320.014 138.3C321.314 136.5 323.014 134 325.114 130.8C327.314 127.6 329.614 124.15 332.014 120.45C334.414 116.65 336.614 113.1 338.614 109.8C339.714 107.9 340.914 105.85 342.214 103.65C343.514 101.45 344.614 99.4 345.514 97.5C346.414 95.5 346.864 94 346.864 93C346.864 92 346.464 91.5 345.664 91.5C345.164 91.5 344.514 91.75 343.714 92.25C342.914 92.75 342.164 93.4 341.464 94.2C339.964 95.7 338.014 98.05 335.614 101.25C333.314 104.35 330.264 108.95 326.464 115.05C326.164 115.55 325.664 115.8 324.964 115.8C324.164 115.8 323.964 115.25 324.364 114.15C326.164 111.25 328.014 108.35 329.914 105.45C331.814 102.45 333.714 99.65 335.614 97.05C337.614 94.45 339.464 92.4 341.164 90.9C342.964 89.3 344.864 88.5 346.864 88.5C348.764 88.5 350.214 89.15 351.214 90.45C352.214 91.75 352.714 93.25 352.714 94.95C352.714 96.95 352.264 99.15 351.364 101.55C351.764 101.15 352.114 100.75 352.414 100.35C352.814 99.95 353.214 99.55 353.614 99.15C357.114 95.45 360.514 92.75 363.814 91.05C367.214 89.25 370.164 88.35 372.664 88.35C374.564 88.35 376.164 88.85 377.464 89.85C378.864 90.85 379.564 92.2 379.564 93.9C379.564 95.9 378.864 98.3 377.464 101.1C376.064 103.9 374.464 106.55 372.664 109.05C370.964 111.55 369.564 113.5 368.464 114.9C367.764 115.9 366.414 117.75 364.414 120.45C362.414 123.05 360.714 125.75 359.314 128.55C358.614 129.75 358.114 130.85 357.814 131.85C357.614 132.75 357.514 133.6 357.514 134.4C357.514 136.7 358.564 137.85 360.664 137.85C362.964 137.85 365.814 136.5 369.214 133.8C371.914 131.7 374.664 129 377.464 125.7C380.364 122.3 383.114 118.45 385.714 114.15C386.014 113.65 386.314 113.4 386.614 113.4C386.914 113.3 387.114 113.25 387.214 113.25C387.914 113.25 388.114 113.85 387.814 115.05C384.914 119.65 381.864 123.9 378.664 127.8C375.564 131.7 372.414 134.8 369.214 137.1C366.314 139.1 363.414 140.1 360.514 140.1ZM396.091 139.35C393.491 139.35 391.041 138.75 388.741 137.55C386.441 136.25 384.741 134.2 383.641 131.4C382.941 129.6 382.591 127.55 382.591 125.25C382.591 122.45 383.141 119.7 384.241 117C385.641 113.7 387.691 110.45 390.391 107.25C393.091 104.05 396.091 101.15 399.391 98.55C402.691 95.95 405.991 93.9 409.291 92.4C412.591 90.8 415.541 90 418.141 90C420.341 90 422.091 90.6 423.391 91.8C424.291 92.7 424.741 94 424.741 95.7C424.741 97.9 423.891 100.45 422.191 103.35C420.591 106.15 418.291 108.6 415.291 110.7C413.391 112 411.141 113.1 408.541 114C406.041 114.8 403.391 115.2 400.591 115.2C399.691 115.2 398.741 115.15 397.741 115.05C396.841 114.95 395.941 114.8 395.041 114.6C394.341 115.4 393.491 116.7 392.491 118.5C391.591 120.2 390.791 122.1 390.091 124.2C389.491 126.3 389.191 128.3 389.191 130.2C389.291 132.8 389.991 134.65 391.291 135.75C392.691 136.75 394.341 137.25 396.241 137.25C400.041 137.25 403.691 136.05 407.191 133.65C410.791 131.15 414.041 128.1 416.941 124.5C419.841 120.9 422.291 117.45 424.291 114.15C424.591 113.75 424.841 113.55 425.041 113.55C425.241 113.45 425.391 113.4 425.491 113.4C425.791 113.4 426.041 113.55 426.241 113.85C426.541 114.15 426.591 114.55 426.391 115.05C425.091 117.15 423.391 119.65 421.291 122.55C419.291 125.45 416.891 128.25 414.091 130.95C411.391 133.55 408.341 135.7 404.941 137.4C403.641 138.1 402.191 138.6 400.591 138.9C399.091 139.2 397.591 139.35 396.091 139.35ZM399.241 113.1C403.941 113.1 408.191 111.9 411.991 109.5C415.891 107 418.691 104 420.391 100.5C420.891 99.7 421.191 98.95 421.291 98.25C421.491 97.55 421.591 97 421.591 96.6C421.591 94.9 420.641 94.05 418.741 94.05C417.541 94.05 416.191 94.35 414.691 94.95C413.291 95.55 412.041 96.25 410.941 97.05C409.041 98.45 407.041 100.2 404.941 102.3C402.941 104.3 401.141 106.3 399.541 108.3C397.941 110.2 396.741 111.7 395.941 112.8C396.441 112.9 396.991 113 397.591 113.1C398.191 113.1 398.741 113.1 399.241 113.1Z" fill="black"/>
<path d="M421.14 118.99C420.858 119.465 421.015 120.078 421.49 120.36C421.965 120.642 422.578 120.485 422.86 120.01L421.14 118.99ZM432.036 108.635L432.432 109.553L432.432 109.553L432.036 108.635ZM458.495 124.912L458.284 123.934L458.284 123.934L458.495 124.912ZM472.637 115.248L472.988 116.184L472.637 115.248ZM510.5 124.912L510.409 123.916L510.5 124.912ZM537.871 115.248L537.982 116.241L537.871 115.248ZM588.052 131.524L588.433 132.449L588.433 132.449L588.052 131.524ZM599.989 125.059C600.07 124.513 599.694 124.004 599.147 123.923L590.245 122.597C589.699 122.516 589.19 122.893 589.109 123.439C589.028 123.985 589.405 124.494 589.951 124.575L597.864 125.754L596.685 133.666C596.604 134.213 596.981 134.721 597.527 134.803C598.073 134.884 598.582 134.507 598.664 133.961L599.989 125.059ZM422 119.5C422.86 120.01 422.86 120.01 422.86 120.01C422.86 120.01 422.86 120.01 422.86 120.01C422.86 120.01 422.86 120.01 422.86 120.009C422.861 120.009 422.862 120.007 422.863 120.006C422.865 120.002 422.868 119.997 422.873 119.989C422.882 119.974 422.896 119.95 422.915 119.919C422.952 119.858 423.009 119.765 423.082 119.647C423.23 119.409 423.448 119.065 423.724 118.645C424.278 117.805 425.064 116.664 425.997 115.462C426.931 114.258 428.002 113.006 429.122 111.935C430.251 110.855 431.382 110.007 432.432 109.553L431.64 107.717C430.276 108.306 428.945 109.337 427.739 110.489C426.525 111.651 425.388 112.985 424.417 114.236C423.444 115.49 422.627 116.674 422.054 117.545C421.767 117.981 421.54 118.34 421.384 118.591C421.306 118.716 421.246 118.815 421.205 118.882C421.184 118.916 421.168 118.942 421.157 118.961C421.152 118.97 421.148 118.977 421.145 118.982C421.143 118.984 421.142 118.986 421.141 118.987C421.141 118.988 421.141 118.989 421.14 118.989C421.14 118.989 421.14 118.989 421.14 118.99C421.14 118.99 421.14 118.99 422 119.5ZM432.432 109.553C433.652 109.027 434.726 108.909 435.704 109.062C436.691 109.215 437.646 109.654 438.601 110.339C440.548 111.733 442.335 114.018 444.252 116.534C446.123 118.989 448.112 121.655 450.385 123.525C452.697 125.427 455.415 126.598 458.705 125.889L458.284 123.934C455.782 124.473 453.671 123.639 451.655 121.981C449.601 120.291 447.763 117.841 445.843 115.322C443.97 112.864 442.002 110.315 439.766 108.713C438.63 107.899 437.387 107.299 436.011 107.085C434.626 106.87 433.172 107.056 431.64 107.717L432.432 109.553ZM458.705 125.889C462.191 125.139 464.37 123.107 466.353 121.141C468.362 119.148 470.156 117.247 472.988 116.184L472.285 114.311C468.978 115.553 466.881 117.8 464.945 119.721C462.982 121.667 461.159 123.315 458.284 123.934L458.705 125.889ZM472.988 116.184C479.711 113.66 485.024 116.183 490.798 119.444C496.489 122.657 502.657 126.631 510.591 125.908L510.409 123.916C503.224 124.571 497.648 121.015 491.781 117.702C485.997 114.436 479.938 111.438 472.285 114.311L472.988 116.184ZM510.591 125.908C516.396 125.378 520.607 123.183 524.658 121.05C528.719 118.912 532.614 116.841 537.982 116.241L537.76 114.254C531.971 114.901 527.769 117.152 523.727 119.28C519.675 121.413 515.779 123.426 510.409 123.916L510.591 125.908ZM537.982 116.241C547.684 115.157 555.107 120.902 562.824 126.313C570.407 131.631 578.309 136.622 588.433 132.449L587.67 130.6C578.652 134.318 571.617 130.036 563.972 124.676C556.461 119.408 548.366 113.068 537.76 114.254L537.982 116.241ZM588.433 132.449C590.805 131.47 593.608 129.773 595.784 128.35C596.879 127.633 597.83 126.976 598.507 126.497C598.846 126.258 599.117 126.064 599.304 125.928C599.397 125.861 599.469 125.808 599.518 125.772C599.543 125.754 599.562 125.74 599.575 125.73C599.581 125.726 599.586 125.722 599.59 125.719C599.591 125.718 599.593 125.717 599.594 125.717C599.594 125.716 599.594 125.716 599.595 125.716C599.595 125.716 599.595 125.715 599.595 125.715C599.595 125.715 599.595 125.715 599 124.912C598.405 124.108 598.405 124.108 598.405 124.108C598.405 124.108 598.405 124.108 598.405 124.108C598.405 124.108 598.404 124.109 598.404 124.109C598.403 124.109 598.402 124.11 598.401 124.111C598.398 124.113 598.394 124.116 598.388 124.12C598.377 124.129 598.359 124.142 598.336 124.159C598.289 124.193 598.22 124.244 598.13 124.309C597.949 124.44 597.685 124.63 597.354 124.864C596.691 125.331 595.76 125.975 594.689 126.676C592.53 128.089 589.859 129.697 587.67 130.6L588.433 132.449Z" fill="black"/>
</svg>
